<?xml version="1.0" encoding="UTF-8"?>
<svg id="Logo" xmlns="http://www.w3.org/2000/svg" viewBox="0 0 685.11219 469.85141">
  <defs>
    <style>
      .cls-1 {
        fill: #e64500;
      }

      .cls-2 {
        font-size: 50px;
      }

      .cls-3 {
        fill: #259975;
      }

      .cls-4 {
        fill: #e0e0e0;
        font-family: LucidaHandwriting-Italic, 'Lucida Handwriting';
        font-style: italic;
      }

      .cls-5 {
        fill: #eb0028;
      }

      .cls-6 {
        font-size: 150px;
      }
    </style>
  </defs>
  <path class="cls-3" d="M438.12264,19.51381l-121.48315,244.63411c-4.91235,9.89216-13.50317,14.83823-22.09399,14.83823s-17.18164-4.94608-22.09375-14.83823l-52.79443-106.31326L290.75106,14.67116c4.50879-9.07922,12.83496-14.67116,21.84521-14.67116h115.85107c8.60474,0,13.98096,10.84347,9.67529,19.51381Z"/>
  <path class="cls-1" d="M685.11219,278.98615c-8.5908,0-17.1816-4.94606-22.09394-14.8382L539.13037,14.67106c-4.50861-9.07912-12.83495-14.67106-21.84506-14.67106h-115.85118c-8.60463,0-13.98082,10.84329-9.67512,19.51381l121.48302,244.63414c4.91234,9.89213,13.50313,14.8382,22.09393,14.8382h149.77623"/>
  <g id="WaPi.at">
    <text class="cls-4" transform="translate(106.33803 421.07205)"><tspan class="cls-6" x="0" y="0">WaPI</tspan><tspan class="cls-2" x="445.75195" y="0">.at</tspan></text>
  </g>
  <path class="cls-5" d="M294.86956,278.98615c-8.5908,0-17.1816-4.94606-22.09394-14.8382L148.88774,14.67106c-4.50861-9.07912-12.83495-14.67106-21.84506-14.67106H11.19149C2.58686,0-2.78933,10.84329,1.51637,19.51381l121.48302,244.63414c4.91234,9.89213,13.50313,14.8382,22.09393,14.8382h149.77623"/>
</svg>