<?xml version="1.0" encoding="UTF-8"?>
<svg id="Ebene_1" xmlns="http://www.w3.org/2000/svg" viewBox="0 0 3846.00292 1572.24811">
  <defs>
    <style>
      .cls-1 {
        fill: #e64500;
      }

      .cls-2 {
        fill: #259975;
      }

      .cls-3 {
        fill: #eb0028;
      }
    </style>
  </defs>
  <path class="cls-2" d="M2465.07414,109.97159l-684.62774,1378.6545c-27.68395,55.74802-76.09818,83.62202-124.51242,83.62202s-96.82847-27.87401-124.51104-83.62202l-297.52713-599.13665L1634.55016,82.68045C1659.95979,31.51379,1706.88258,0,1757.66056,0h652.88772c48.49266,0,78.79077,61.1092,54.52586,109.97159Z"/>
  <path class="cls-1" d="M3846.00292,1572.24811c-48.41411.00001-96.82823-27.87393-124.51211-83.62184L3023.31104,82.6799c-25.40861-51.1661-72.33234-82.6799-123.10955-82.6799h-652.88833c-48.49204,0-78.79001,61.10818-54.52489,109.97161l684.62697,1378.65467c27.68387,55.74788,76.09796,83.62182,124.51208,83.62184h844.07557"/>
  <path class="cls-3" d="M1661.76027,1572.24811c-48.41411.00001-96.82823-27.87393-124.51211-83.62184L839.06839,82.6799C813.65978,31.5138,766.73605,0,715.95884,0H63.07051C14.57847,0-15.7195,61.10818,8.54562,109.97161l684.62697,1378.65467c27.68387,55.74788,76.09796,83.62182,124.51208,83.62184h844.07557"/>
</svg>