<?xml version="1.0" encoding="UTF-8"?>
<svg xmlns="http://www.w3.org/2000/svg" version="1.1" viewBox="0 0 64 64">
  <defs>
    <style>
      .cls-1 {
        fill: #e64500;
      }

      .cls-2 {
        fill: #259975;
      }

      .cls-3 {
        fill: #eb0028;
      }
    </style>
  </defs>
  <!-- Generator: Adobe Illustrator 28.7.1, SVG Export Plug-In . SVG Version: 1.2.0 Build 142)  -->
  <g>
    <g id="Ebene_1">
      <path class="cls-2" d="M40.6,21.2l-10.9,22c-.4.9-1.2,1.3-2,1.3s-1.5-.4-2-1.3l-4.8-9.6,6.4-12.9c.4-.8,1.2-1.3,2-1.3h10.4c.8,0,1.3,1,.9,1.8Z"/>
      <path class="cls-1" d="M62.9,44.6c-.8,0-1.5-.4-2-1.3l-11.2-22.5c-.4-.8-1.2-1.3-2-1.3h-10.4c-.8,0-1.3,1-.9,1.8l10.9,22c.4.9,1.2,1.3,2,1.3h13.5"/>
      <path class="cls-3" d="M27.7,44.6c-.8,0-1.5-.4-2-1.3l-11.2-22.5c-.4-.8-1.2-1.3-2-1.3H2.1c-.8,0-1.3,1-.9,1.8l10.9,22c.4.9,1.2,1.3,2,1.3h13.5"/>
    </g>
  </g>
</svg>